<svg xmlns="http://www.w3.org/2000/svg" xmlns:xlink="http://www.w3.org/1999/xlink" width="500" zoomAndPan="magnify" viewBox="0 0 375 374.999991" height="500" preserveAspectRatio="xMidYMid meet" version="1.0"><defs><g/><clipPath id="id1"><path d="M 123 90.894531 L 189 90.894531 L 189 195 L 123 195 Z M 123 90.894531 " clip-rule="nonzero"/></clipPath><clipPath id="id2"><path d="M 111 104 L 260.933594 104 L 260.933594 207.894531 L 111 207.894531 Z M 111 104 " clip-rule="nonzero"/></clipPath><clipPath id="id3"><path d="M 183 90.894531 L 249 90.894531 L 249 195 L 183 195 Z M 183 90.894531 " clip-rule="nonzero"/></clipPath><clipPath id="id4"><path d="M 257.46875 174.652344 L 303 174.652344 L 303 261.652344 L 257.46875 261.652344 Z M 257.46875 174.652344 " clip-rule="nonzero"/></clipPath></defs><g clip-path="url(#id1)"><path fill="rgb(18.03894%, 17.649841%, 17.649841%)" d="M 185.835938 194.128906 L 125.433594 194.128906 C 125.144531 194.128906 124.867188 194.070312 124.601562 193.960938 C 124.335938 193.851562 124.101562 193.695312 123.898438 193.492188 C 123.695312 193.289062 123.535156 193.050781 123.425781 192.785156 C 123.316406 192.519531 123.261719 192.242188 123.261719 191.957031 L 123.261719 93.0625 C 123.261719 92.777344 123.316406 92.5 123.425781 92.234375 C 123.535156 91.96875 123.695312 91.730469 123.898438 91.527344 C 124.101562 91.324219 124.335938 91.167969 124.601562 91.058594 C 124.867188 90.949219 125.144531 90.890625 125.433594 90.890625 L 171.886719 90.890625 C 172.414062 90.894531 172.941406 90.917969 173.46875 90.972656 C 173.992188 91.023438 174.511719 91.101562 175.03125 91.207031 C 175.546875 91.308594 176.058594 91.4375 176.566406 91.589844 C 177.070312 91.746094 177.566406 91.921875 178.054688 92.125 C 178.539062 92.328125 179.015625 92.554688 179.480469 92.800781 C 179.949219 93.050781 180.398438 93.324219 180.839844 93.617188 C 181.277344 93.910156 181.699219 94.222656 182.109375 94.558594 C 182.515625 94.894531 182.90625 95.246094 183.28125 95.621094 C 183.652344 95.996094 184.007812 96.386719 184.34375 96.792969 C 184.675781 97.203125 184.992188 97.625 185.285156 98.0625 C 185.578125 98.503906 185.847656 98.953125 186.097656 99.421875 C 186.347656 99.886719 186.574219 100.363281 186.773438 100.851562 C 186.976562 101.335938 187.15625 101.835938 187.308594 102.339844 C 187.460938 102.84375 187.589844 103.355469 187.695312 103.875 C 187.796875 104.390625 187.875 104.914062 187.925781 105.4375 C 187.980469 105.964844 188.007812 106.488281 188.007812 107.019531 L 188.007812 191.957031 C 188.007812 192.242188 187.953125 192.519531 187.839844 192.785156 C 187.730469 193.050781 187.574219 193.289062 187.371094 193.492188 C 187.167969 193.695312 186.933594 193.851562 186.667969 193.960938 C 186.402344 194.070312 186.125 194.128906 185.835938 194.128906 Z M 127.601562 189.785156 L 183.664062 189.785156 L 183.664062 107.019531 C 183.664062 106.246094 183.589844 105.480469 183.4375 104.71875 C 183.285156 103.960938 183.0625 103.226562 182.765625 102.511719 C 182.46875 101.796875 182.105469 101.117188 181.675781 100.476562 C 181.246094 99.832031 180.757812 99.238281 180.210938 98.691406 C 179.664062 98.144531 179.070312 97.65625 178.429688 97.226562 C 177.785156 96.796875 177.105469 96.433594 176.394531 96.136719 C 175.679688 95.839844 174.941406 95.617188 174.183594 95.464844 C 173.425781 95.3125 172.660156 95.234375 171.886719 95.234375 L 127.601562 95.234375 Z M 127.601562 189.785156 " fill-opacity="1" fill-rule="nonzero"/></g><path fill="rgb(18.03894%, 17.649841%, 17.649841%)" d="M 185.636719 104.664062 C 185.769531 105.441406 185.835938 106.226562 185.835938 107.019531 L 185.835938 109.003906 L 185.910156 109.003906 L 185.910156 107.019531 C 185.910156 106.226562 185.976562 105.441406 186.109375 104.664062 Z M 185.636719 104.664062 " fill-opacity="1" fill-rule="nonzero"/><g clip-path="url(#id2)"><path fill="rgb(18.03894%, 17.649841%, 17.649841%)" d="M 252.972656 104.664062 L 246.316406 104.664062 L 246.316406 109.003906 L 252.972656 109.003906 C 253.445312 109.007812 253.894531 109.097656 254.328125 109.277344 C 254.765625 109.457031 255.148438 109.710938 255.480469 110.046875 C 255.8125 110.378906 256.066406 110.761719 256.246094 111.195312 C 256.425781 111.628906 256.515625 112.082031 256.519531 112.550781 L 256.519531 200.007812 C 256.515625 200.476562 256.425781 200.929688 256.246094 201.363281 C 256.066406 201.796875 255.8125 202.179688 255.480469 202.511719 C 255.148438 202.84375 254.765625 203.101562 254.328125 203.28125 C 253.894531 203.460938 253.445312 203.550781 252.972656 203.550781 L 118.890625 203.550781 C 118.421875 203.550781 117.96875 203.460938 117.535156 203.28125 C 117.101562 203.101562 116.71875 202.84375 116.386719 202.511719 C 116.054688 202.179688 115.800781 201.796875 115.617188 201.363281 C 115.4375 200.929688 115.347656 200.476562 115.347656 200.007812 L 115.347656 112.550781 C 115.347656 112.082031 115.4375 111.628906 115.617188 111.195312 C 115.800781 110.761719 116.054688 110.378906 116.386719 110.046875 C 116.71875 109.710938 117.101562 109.457031 117.535156 109.277344 C 117.96875 109.097656 118.421875 109.007812 118.890625 109.003906 L 125.433594 109.003906 L 125.433594 104.664062 L 118.890625 104.664062 C 118.375 104.664062 117.863281 104.714844 117.355469 104.816406 C 116.847656 104.917969 116.355469 105.066406 115.875 105.265625 C 115.398438 105.464844 114.945312 105.707031 114.515625 105.996094 C 114.082031 106.28125 113.6875 106.609375 113.320312 106.976562 C 112.953125 107.34375 112.628906 107.742188 112.339844 108.171875 C 112.050781 108.601562 111.808594 109.054688 111.609375 109.535156 C 111.414062 110.011719 111.261719 110.503906 111.160156 111.011719 C 111.058594 111.519531 111.007812 112.03125 111.007812 112.550781 L 111.007812 200.007812 C 111.007812 200.523438 111.058594 201.035156 111.160156 201.542969 C 111.261719 202.050781 111.414062 202.546875 111.609375 203.023438 C 111.808594 203.5 112.050781 203.957031 112.339844 204.386719 C 112.628906 204.816406 112.953125 205.214844 113.320312 205.582031 C 113.6875 205.945312 114.085938 206.273438 114.515625 206.5625 C 114.945312 206.847656 115.398438 207.09375 115.875 207.289062 C 116.355469 207.488281 116.847656 207.640625 117.355469 207.742188 C 117.863281 207.84375 118.375 207.894531 118.890625 207.894531 L 252.976562 207.894531 C 253.492188 207.894531 254.003906 207.84375 254.511719 207.742188 C 255.019531 207.640625 255.511719 207.488281 255.992188 207.289062 C 256.46875 207.09375 256.921875 206.847656 257.351562 206.5625 C 257.785156 206.273438 258.183594 205.945312 258.546875 205.582031 C 258.914062 205.214844 259.242188 204.816406 259.527344 204.386719 C 259.816406 203.957031 260.058594 203.5 260.257812 203.023438 C 260.457031 202.546875 260.605469 202.050781 260.707031 201.542969 C 260.808594 201.035156 260.859375 200.523438 260.859375 200.007812 L 260.859375 112.550781 C 260.859375 112.03125 260.808594 111.519531 260.707031 111.011719 C 260.605469 110.503906 260.457031 110.011719 260.257812 109.535156 C 260.058594 109.054688 259.816406 108.601562 259.527344 108.171875 C 259.242188 107.738281 258.914062 107.34375 258.546875 106.976562 C 258.179688 106.609375 257.785156 106.28125 257.351562 105.996094 C 256.921875 105.707031 256.46875 105.464844 255.992188 105.265625 C 255.511719 105.066406 255.019531 104.917969 254.511719 104.816406 C 254.003906 104.714844 253.492188 104.664062 252.972656 104.664062 Z M 252.972656 104.664062 " fill-opacity="1" fill-rule="nonzero"/></g><g clip-path="url(#id3)"><path fill="rgb(18.03894%, 17.649841%, 17.649841%)" d="M 246.316406 194.128906 L 185.910156 194.128906 C 185.625 194.128906 185.347656 194.070312 185.082031 193.960938 C 184.816406 193.851562 184.582031 193.695312 184.378906 193.492188 C 184.171875 193.289062 184.015625 193.050781 183.90625 192.785156 C 183.796875 192.519531 183.742188 192.242188 183.742188 191.957031 L 183.742188 107.019531 C 183.742188 106.488281 183.769531 105.964844 183.820312 105.4375 C 183.871094 104.914062 183.949219 104.390625 184.054688 103.875 C 184.15625 103.355469 184.285156 102.84375 184.441406 102.339844 C 184.59375 101.835938 184.769531 101.335938 184.972656 100.851562 C 185.175781 100.363281 185.402344 99.886719 185.648438 99.421875 C 185.898438 98.953125 186.171875 98.503906 186.464844 98.0625 C 186.757812 97.625 187.070312 97.199219 187.40625 96.792969 C 187.742188 96.386719 188.09375 95.996094 188.46875 95.621094 C 188.839844 95.246094 189.230469 94.894531 189.640625 94.558594 C 190.046875 94.222656 190.472656 93.910156 190.910156 93.617188 C 191.347656 93.324219 191.800781 93.050781 192.265625 92.800781 C 192.730469 92.554688 193.207031 92.328125 193.695312 92.125 C 194.183594 91.921875 194.679688 91.746094 195.183594 91.589844 C 195.6875 91.4375 196.199219 91.308594 196.71875 91.207031 C 197.234375 91.101562 197.757812 91.023438 198.28125 90.972656 C 198.804688 90.917969 199.332031 90.894531 199.859375 90.890625 L 246.316406 90.890625 C 246.605469 90.890625 246.882812 90.949219 247.148438 91.058594 C 247.414062 91.167969 247.648438 91.324219 247.851562 91.527344 C 248.054688 91.730469 248.210938 91.96875 248.320312 92.234375 C 248.433594 92.5 248.488281 92.777344 248.488281 93.0625 L 248.488281 191.957031 C 248.488281 192.242188 248.433594 192.519531 248.320312 192.785156 C 248.210938 193.050781 248.054688 193.289062 247.851562 193.492188 C 247.648438 193.695312 247.414062 193.851562 247.148438 193.960938 C 246.882812 194.070312 246.605469 194.128906 246.316406 194.128906 Z M 188.082031 189.785156 L 244.144531 189.785156 L 244.144531 95.234375 L 199.859375 95.234375 C 199.085938 95.234375 198.320312 95.3125 197.5625 95.464844 C 196.804688 95.613281 196.070312 95.839844 195.355469 96.136719 C 194.640625 96.433594 193.960938 96.796875 193.320312 97.226562 C 192.675781 97.65625 192.082031 98.144531 191.535156 98.691406 C 190.988281 99.238281 190.5 99.832031 190.070312 100.476562 C 189.640625 101.117188 189.277344 101.796875 188.980469 102.511719 C 188.6875 103.226562 188.460938 103.960938 188.3125 104.71875 C 188.160156 105.480469 188.082031 106.246094 188.082031 107.019531 Z M 188.082031 189.785156 " fill-opacity="1" fill-rule="nonzero"/></g><path fill="rgb(18.03894%, 17.649841%, 17.649841%)" d="M 169.910156 116.882812 L 141.355469 116.882812 C 141.070312 116.882812 140.792969 116.828125 140.527344 116.714844 C 140.261719 116.605469 140.027344 116.449219 139.820312 116.246094 C 139.617188 116.042969 139.460938 115.808594 139.351562 115.542969 C 139.242188 115.273438 139.1875 115 139.1875 114.710938 C 139.1875 114.421875 139.242188 114.144531 139.351562 113.878906 C 139.460938 113.613281 139.617188 113.378906 139.820312 113.175781 C 140.027344 112.972656 140.261719 112.816406 140.527344 112.703125 C 140.792969 112.59375 141.070312 112.539062 141.355469 112.539062 L 169.910156 112.539062 C 170.199219 112.539062 170.476562 112.59375 170.742188 112.703125 C 171.007812 112.816406 171.242188 112.972656 171.445312 113.175781 C 171.648438 113.378906 171.804688 113.613281 171.917969 113.878906 C 172.027344 114.144531 172.082031 114.421875 172.082031 114.710938 C 172.082031 115 172.027344 115.273438 171.917969 115.542969 C 171.804688 115.808594 171.648438 116.042969 171.445312 116.246094 C 171.242188 116.449219 171.007812 116.605469 170.742188 116.714844 C 170.476562 116.828125 170.199219 116.882812 169.910156 116.882812 Z M 169.910156 116.882812 " fill-opacity="1" fill-rule="nonzero"/><path fill="rgb(18.03894%, 17.649841%, 17.649841%)" d="M 169.910156 131.539062 L 141.355469 131.539062 C 141.070312 131.539062 140.792969 131.484375 140.527344 131.375 C 140.261719 131.265625 140.027344 131.109375 139.820312 130.90625 C 139.617188 130.699219 139.460938 130.464844 139.351562 130.199219 C 139.242188 129.933594 139.1875 129.65625 139.1875 129.371094 C 139.1875 129.082031 139.242188 128.804688 139.351562 128.539062 C 139.460938 128.273438 139.617188 128.039062 139.820312 127.832031 C 140.027344 127.628906 140.261719 127.472656 140.527344 127.363281 C 140.792969 127.253906 141.070312 127.199219 141.355469 127.199219 L 169.910156 127.199219 C 170.199219 127.199219 170.476562 127.253906 170.742188 127.363281 C 171.007812 127.472656 171.242188 127.628906 171.445312 127.832031 C 171.648438 128.039062 171.804688 128.273438 171.917969 128.539062 C 172.027344 128.804688 172.082031 129.082031 172.082031 129.371094 C 172.082031 129.65625 172.027344 129.933594 171.917969 130.199219 C 171.804688 130.464844 171.648438 130.699219 171.445312 130.90625 C 171.242188 131.109375 171.007812 131.265625 170.742188 131.375 C 170.476562 131.484375 170.199219 131.539062 169.910156 131.539062 Z M 169.910156 131.539062 " fill-opacity="1" fill-rule="nonzero"/><path fill="rgb(18.03894%, 17.649841%, 17.649841%)" d="M 169.910156 146.199219 L 141.355469 146.199219 C 141.070312 146.199219 140.792969 146.144531 140.527344 146.035156 C 140.261719 145.921875 140.027344 145.765625 139.820312 145.5625 C 139.617188 145.359375 139.460938 145.125 139.351562 144.859375 C 139.242188 144.59375 139.1875 144.316406 139.1875 144.027344 C 139.1875 143.738281 139.242188 143.460938 139.351562 143.195312 C 139.460938 142.929688 139.617188 142.695312 139.820312 142.492188 C 140.027344 142.289062 140.261719 142.132812 140.527344 142.019531 C 140.792969 141.910156 141.070312 141.855469 141.355469 141.855469 L 169.910156 141.855469 C 170.199219 141.855469 170.476562 141.910156 170.742188 142.019531 C 171.007812 142.132812 171.242188 142.289062 171.445312 142.492188 C 171.648438 142.695312 171.804688 142.929688 171.917969 143.195312 C 172.027344 143.460938 172.082031 143.738281 172.082031 144.027344 C 172.082031 144.316406 172.027344 144.59375 171.917969 144.859375 C 171.804688 145.125 171.648438 145.359375 171.445312 145.5625 C 171.242188 145.765625 171.007812 145.921875 170.742188 146.035156 C 170.476562 146.144531 170.199219 146.199219 169.910156 146.199219 Z M 169.910156 146.199219 " fill-opacity="1" fill-rule="nonzero"/><path fill="rgb(18.03894%, 17.649841%, 17.649841%)" d="M 169.910156 160.859375 L 141.355469 160.859375 C 141.070312 160.859375 140.792969 160.804688 140.527344 160.691406 C 140.261719 160.582031 140.027344 160.425781 139.820312 160.222656 C 139.617188 160.019531 139.460938 159.785156 139.351562 159.519531 C 139.242188 159.25 139.1875 158.976562 139.1875 158.6875 C 139.1875 158.398438 139.242188 158.121094 139.351562 157.855469 C 139.460938 157.589844 139.617188 157.355469 139.820312 157.152344 C 140.027344 156.949219 140.261719 156.792969 140.527344 156.679688 C 140.792969 156.570312 141.070312 156.515625 141.355469 156.515625 L 169.910156 156.515625 C 170.199219 156.515625 170.476562 156.570312 170.742188 156.679688 C 171.007812 156.792969 171.242188 156.949219 171.445312 157.152344 C 171.648438 157.355469 171.804688 157.589844 171.917969 157.855469 C 172.027344 158.121094 172.082031 158.398438 172.082031 158.6875 C 172.082031 158.976562 172.027344 159.25 171.917969 159.519531 C 171.804688 159.785156 171.648438 160.019531 171.445312 160.222656 C 171.242188 160.425781 171.007812 160.582031 170.742188 160.691406 C 170.476562 160.804688 170.199219 160.859375 169.910156 160.859375 Z M 169.910156 160.859375 " fill-opacity="1" fill-rule="nonzero"/><path fill="rgb(18.03894%, 17.649841%, 17.649841%)" d="M 169.910156 175.515625 L 141.355469 175.515625 C 141.070312 175.515625 140.792969 175.460938 140.527344 175.351562 C 140.261719 175.242188 140.027344 175.085938 139.820312 174.882812 C 139.617188 174.675781 139.460938 174.441406 139.351562 174.175781 C 139.242188 173.910156 139.1875 173.632812 139.1875 173.34375 C 139.1875 173.058594 139.242188 172.78125 139.351562 172.515625 C 139.460938 172.25 139.617188 172.015625 139.820312 171.808594 C 140.027344 171.605469 140.261719 171.449219 140.527344 171.339844 C 140.792969 171.230469 141.070312 171.175781 141.355469 171.175781 L 169.910156 171.175781 C 170.199219 171.175781 170.476562 171.230469 170.742188 171.339844 C 171.007812 171.449219 171.242188 171.605469 171.445312 171.808594 C 171.648438 172.015625 171.804688 172.25 171.917969 172.515625 C 172.027344 172.78125 172.082031 173.058594 172.082031 173.34375 C 172.082031 173.632812 172.027344 173.910156 171.917969 174.175781 C 171.804688 174.441406 171.648438 174.675781 171.445312 174.882812 C 171.242188 175.085938 171.007812 175.242188 170.742188 175.351562 C 170.476562 175.460938 170.199219 175.515625 169.910156 175.515625 Z M 169.910156 175.515625 " fill-opacity="1" fill-rule="nonzero"/><path fill="rgb(18.03894%, 17.649841%, 17.649841%)" d="M 230.390625 116.882812 L 201.835938 116.882812 C 201.546875 116.882812 201.273438 116.828125 201.007812 116.714844 C 200.738281 116.605469 200.503906 116.449219 200.300781 116.246094 C 200.097656 116.042969 199.941406 115.808594 199.832031 115.542969 C 199.722656 115.273438 199.667969 115 199.667969 114.710938 C 199.667969 114.421875 199.722656 114.144531 199.832031 113.878906 C 199.941406 113.613281 200.097656 113.378906 200.300781 113.175781 C 200.503906 112.972656 200.738281 112.816406 201.007812 112.703125 C 201.273438 112.59375 201.546875 112.539062 201.835938 112.539062 L 230.390625 112.539062 C 230.679688 112.539062 230.957031 112.59375 231.222656 112.703125 C 231.488281 112.816406 231.722656 112.972656 231.925781 113.175781 C 232.128906 113.378906 232.285156 113.613281 232.394531 113.878906 C 232.507812 114.144531 232.5625 114.421875 232.5625 114.710938 C 232.5625 115 232.507812 115.273438 232.394531 115.542969 C 232.285156 115.808594 232.128906 116.042969 231.925781 116.246094 C 231.722656 116.449219 231.488281 116.605469 231.222656 116.714844 C 230.957031 116.828125 230.679688 116.882812 230.390625 116.882812 Z M 230.390625 116.882812 " fill-opacity="1" fill-rule="nonzero"/><path fill="rgb(18.03894%, 17.649841%, 17.649841%)" d="M 230.390625 131.539062 L 201.835938 131.539062 C 201.546875 131.539062 201.273438 131.484375 201.007812 131.375 C 200.738281 131.265625 200.503906 131.109375 200.300781 130.90625 C 200.097656 130.699219 199.941406 130.464844 199.832031 130.199219 C 199.722656 129.933594 199.667969 129.65625 199.667969 129.371094 C 199.667969 129.082031 199.722656 128.804688 199.832031 128.539062 C 199.941406 128.273438 200.097656 128.039062 200.300781 127.832031 C 200.503906 127.628906 200.738281 127.472656 201.007812 127.363281 C 201.273438 127.253906 201.546875 127.199219 201.835938 127.199219 L 230.390625 127.199219 C 230.679688 127.199219 230.957031 127.253906 231.222656 127.363281 C 231.488281 127.472656 231.722656 127.628906 231.925781 127.832031 C 232.128906 128.039062 232.285156 128.273438 232.394531 128.539062 C 232.507812 128.804688 232.5625 129.082031 232.5625 129.371094 C 232.5625 129.65625 232.507812 129.933594 232.394531 130.199219 C 232.285156 130.464844 232.128906 130.699219 231.925781 130.90625 C 231.722656 131.109375 231.488281 131.265625 231.222656 131.375 C 230.957031 131.484375 230.679688 131.539062 230.390625 131.539062 Z M 230.390625 131.539062 " fill-opacity="1" fill-rule="nonzero"/><path fill="rgb(18.03894%, 17.649841%, 17.649841%)" d="M 230.390625 146.199219 L 201.835938 146.199219 C 201.546875 146.199219 201.273438 146.144531 201.007812 146.035156 C 200.738281 145.921875 200.503906 145.765625 200.300781 145.5625 C 200.097656 145.359375 199.941406 145.125 199.832031 144.859375 C 199.722656 144.59375 199.667969 144.316406 199.667969 144.027344 C 199.667969 143.738281 199.722656 143.460938 199.832031 143.195312 C 199.941406 142.929688 200.097656 142.695312 200.300781 142.492188 C 200.503906 142.289062 200.738281 142.132812 201.007812 142.019531 C 201.273438 141.910156 201.546875 141.855469 201.835938 141.855469 L 230.390625 141.855469 C 230.679688 141.855469 230.957031 141.910156 231.222656 142.019531 C 231.488281 142.132812 231.722656 142.289062 231.925781 142.492188 C 232.128906 142.695312 232.285156 142.929688 232.394531 143.195312 C 232.507812 143.460938 232.5625 143.738281 232.5625 144.027344 C 232.5625 144.316406 232.507812 144.59375 232.394531 144.859375 C 232.285156 145.125 232.128906 145.359375 231.925781 145.5625 C 231.722656 145.765625 231.488281 145.921875 231.222656 146.035156 C 230.957031 146.144531 230.679688 146.199219 230.390625 146.199219 Z M 230.390625 146.199219 " fill-opacity="1" fill-rule="nonzero"/><path fill="rgb(18.03894%, 17.649841%, 17.649841%)" d="M 230.390625 160.859375 L 201.835938 160.859375 C 201.546875 160.859375 201.273438 160.804688 201.007812 160.691406 C 200.738281 160.582031 200.503906 160.425781 200.300781 160.222656 C 200.097656 160.019531 199.941406 159.785156 199.832031 159.519531 C 199.722656 159.25 199.667969 158.976562 199.667969 158.6875 C 199.667969 158.398438 199.722656 158.121094 199.832031 157.855469 C 199.941406 157.589844 200.097656 157.355469 200.300781 157.152344 C 200.503906 156.949219 200.738281 156.792969 201.007812 156.679688 C 201.273438 156.570312 201.546875 156.515625 201.835938 156.515625 L 230.390625 156.515625 C 230.679688 156.515625 230.957031 156.570312 231.222656 156.679688 C 231.488281 156.792969 231.722656 156.949219 231.925781 157.152344 C 232.128906 157.355469 232.285156 157.589844 232.394531 157.855469 C 232.507812 158.121094 232.5625 158.398438 232.5625 158.6875 C 232.5625 158.976562 232.507812 159.25 232.394531 159.519531 C 232.285156 159.785156 232.128906 160.019531 231.925781 160.222656 C 231.722656 160.425781 231.488281 160.582031 231.222656 160.691406 C 230.957031 160.804688 230.679688 160.859375 230.390625 160.859375 Z M 230.390625 160.859375 " fill-opacity="1" fill-rule="nonzero"/><path fill="rgb(18.03894%, 17.649841%, 17.649841%)" d="M 230.390625 175.515625 L 201.835938 175.515625 C 201.546875 175.515625 201.273438 175.460938 201.007812 175.351562 C 200.738281 175.242188 200.503906 175.085938 200.300781 174.882812 C 200.097656 174.675781 199.941406 174.441406 199.832031 174.175781 C 199.722656 173.910156 199.667969 173.632812 199.667969 173.34375 C 199.667969 173.058594 199.722656 172.78125 199.832031 172.515625 C 199.941406 172.25 200.097656 172.015625 200.300781 171.808594 C 200.503906 171.605469 200.738281 171.449219 201.007812 171.339844 C 201.273438 171.230469 201.546875 171.175781 201.835938 171.175781 L 230.390625 171.175781 C 230.679688 171.175781 230.957031 171.230469 231.222656 171.339844 C 231.488281 171.449219 231.722656 171.605469 231.925781 171.808594 C 232.128906 172.015625 232.285156 172.25 232.394531 172.515625 C 232.507812 172.78125 232.5625 173.058594 232.5625 173.34375 C 232.5625 173.632812 232.507812 173.910156 232.394531 174.175781 C 232.285156 174.441406 232.128906 174.675781 231.925781 174.882812 C 231.722656 175.085938 231.488281 175.242188 231.222656 175.351562 C 230.957031 175.460938 230.679688 175.515625 230.390625 175.515625 Z M 230.390625 175.515625 " fill-opacity="1" fill-rule="nonzero"/><g clip-path="url(#id4)"><path fill="rgb(18.03894%, 17.649841%, 17.649841%)" d="M 259.972656 178.613281 C 259.707031 178.613281 259.457031 178.5625 259.210938 178.464844 C 258.96875 178.363281 258.753906 178.222656 258.570312 178.039062 C 258.382812 177.851562 258.242188 177.640625 258.140625 177.398438 C 258.039062 177.15625 257.988281 176.90625 257.988281 176.644531 C 257.988281 176.386719 258.039062 176.132812 258.140625 175.894531 C 258.242188 175.652344 258.382812 175.4375 258.570312 175.253906 C 258.753906 175.070312 258.96875 174.925781 259.210938 174.828125 C 259.457031 174.726562 259.707031 174.675781 259.972656 174.675781 C 267.78125 174.675781 273.832031 176.914062 277.957031 181.320312 C 279.6875 183.285156 281.035156 185.480469 281.996094 187.910156 C 282.960938 190.339844 283.484375 192.859375 283.566406 195.46875 C 284.851562 195.589844 286.113281 195.828125 287.351562 196.183594 C 288.59375 196.539062 289.789062 197 290.941406 197.574219 C 292.097656 198.148438 293.1875 198.820312 294.214844 199.597656 C 295.246094 200.371094 296.191406 201.230469 297.0625 202.179688 C 297.929688 203.125 298.703125 204.144531 299.382812 205.234375 C 300.0625 206.324219 300.632812 207.46875 301.101562 208.664062 C 301.566406 209.855469 301.917969 211.085938 302.15625 212.34375 C 302.394531 213.601562 302.515625 214.875 302.515625 216.15625 L 302.515625 240.839844 C 302.515625 241.523438 302.480469 242.199219 302.414062 242.878906 C 302.34375 243.554688 302.246094 244.226562 302.109375 244.894531 C 301.976562 245.5625 301.808594 246.222656 301.609375 246.871094 C 301.410156 247.523438 301.179688 248.164062 300.917969 248.792969 C 300.65625 249.421875 300.363281 250.035156 300.039062 250.632812 C 299.714844 251.234375 299.363281 251.816406 298.984375 252.382812 C 298.601562 252.949219 298.195312 253.496094 297.757812 254.019531 C 297.324219 254.546875 296.863281 255.050781 296.378906 255.53125 C 295.894531 256.011719 295.390625 256.46875 294.859375 256.902344 C 294.332031 257.332031 293.78125 257.738281 293.210938 258.117188 C 292.640625 258.496094 292.054688 258.84375 291.449219 259.164062 C 290.847656 259.484375 290.230469 259.777344 289.597656 260.039062 C 288.964844 260.296875 288.320312 260.527344 287.664062 260.726562 C 287.007812 260.921875 286.34375 261.089844 285.671875 261.222656 C 285 261.355469 284.324219 261.457031 283.644531 261.523438 C 282.960938 261.589844 282.277344 261.625 281.59375 261.625 L 280.617188 261.625 C 279.933594 261.625 279.25 261.589844 278.566406 261.523438 C 277.886719 261.457031 277.207031 261.355469 276.535156 261.222656 C 275.867188 261.089844 275.203125 260.921875 274.546875 260.726562 C 273.890625 260.527344 273.246094 260.296875 272.613281 260.039062 C 271.980469 259.777344 271.363281 259.484375 270.757812 259.164062 C 270.15625 258.84375 269.566406 258.496094 269 258.117188 C 268.429688 257.738281 267.878906 257.332031 267.351562 256.902344 C 266.820312 256.46875 266.3125 256.011719 265.828125 255.53125 C 265.34375 255.050781 264.886719 254.546875 264.449219 254.019531 C 264.015625 253.496094 263.609375 252.949219 263.226562 252.382812 C 262.847656 251.816406 262.496094 251.234375 262.171875 250.632812 C 261.847656 250.035156 261.554688 249.421875 261.292969 248.792969 C 261.03125 248.164062 260.800781 247.523438 260.601562 246.871094 C 260.402344 246.222656 260.234375 245.5625 260.101562 244.894531 C 259.964844 244.226562 259.863281 243.554688 259.796875 242.878906 C 259.730469 242.199219 259.695312 241.523438 259.695312 240.839844 L 259.695312 216.15625 C 259.695312 215.496094 259.726562 214.839844 259.792969 214.183594 C 259.855469 213.527344 259.949219 212.875 260.078125 212.230469 C 260.203125 211.582031 260.359375 210.941406 260.546875 210.3125 C 260.734375 209.679688 260.953125 209.058594 261.199219 208.445312 C 261.445312 207.835938 261.722656 207.234375 262.027344 206.648438 C 262.332031 206.066406 262.664062 205.496094 263.019531 204.941406 C 263.378906 204.386719 263.765625 203.851562 264.175781 203.332031 C 264.585938 202.816406 265.019531 202.316406 265.476562 201.839844 C 265.933594 201.363281 266.414062 200.910156 266.914062 200.476562 C 267.417969 200.046875 267.9375 199.640625 268.476562 199.257812 C 269.015625 198.875 269.574219 198.519531 270.148438 198.1875 C 270.722656 197.859375 271.3125 197.558594 271.914062 197.28125 C 272.519531 197.007812 273.132812 196.761719 273.757812 196.546875 C 274.386719 196.332031 275.019531 196.144531 275.664062 195.988281 C 276.308594 195.832031 276.960938 195.707031 277.617188 195.613281 C 278.273438 195.515625 278.933594 195.453125 279.59375 195.421875 C 279.511719 193.316406 279.082031 191.285156 278.300781 189.328125 C 277.523438 187.371094 276.441406 185.59375 275.054688 184 C 271.710938 180.425781 266.636719 178.613281 259.972656 178.613281 Z M 281.105469 219.207031 C 281.464844 219.207031 281.808594 219.140625 282.140625 219.003906 C 282.472656 218.867188 282.765625 218.671875 283.019531 218.417969 C 283.273438 218.167969 283.46875 217.875 283.605469 217.546875 C 283.746094 217.21875 283.8125 216.875 283.8125 216.519531 L 283.8125 208.773438 C 283.8125 208.417969 283.746094 208.074219 283.609375 207.742188 C 283.46875 207.414062 283.273438 207.121094 283.019531 206.871094 C 282.765625 206.617188 282.472656 206.421875 282.140625 206.289062 C 281.808594 206.152344 281.464844 206.082031 281.105469 206.082031 C 280.746094 206.082031 280.398438 206.152344 280.066406 206.289062 C 279.738281 206.421875 279.445312 206.617188 279.1875 206.871094 C 278.933594 207.121094 278.738281 207.414062 278.601562 207.742188 C 278.464844 208.074219 278.394531 208.417969 278.394531 208.773438 L 278.394531 216.519531 C 278.394531 216.875 278.464844 217.21875 278.601562 217.546875 C 278.742188 217.875 278.9375 218.167969 279.191406 218.421875 C 279.445312 218.671875 279.738281 218.867188 280.070312 219.003906 C 280.402344 219.140625 280.746094 219.207031 281.105469 219.210938 Z M 283.085938 199.382812 L 283.085938 202.480469 C 283.765625 202.6875 284.390625 202.996094 284.96875 203.402344 C 285.546875 203.808594 286.046875 204.296875 286.46875 204.863281 C 286.890625 205.429688 287.214844 206.046875 287.4375 206.714844 C 287.660156 207.382812 287.773438 208.070312 287.777344 208.773438 L 287.777344 216.519531 C 287.773438 217.222656 287.660156 217.910156 287.4375 218.578125 C 287.214844 219.246094 286.890625 219.863281 286.46875 220.429688 C 286.046875 220.996094 285.546875 221.480469 284.96875 221.890625 C 284.390625 222.296875 283.765625 222.605469 283.085938 222.8125 L 283.085938 223.917969 L 298.554688 223.917969 L 298.554688 216.15625 C 298.550781 215.113281 298.453125 214.078125 298.257812 213.054688 C 298.0625 212.027344 297.777344 211.03125 297.394531 210.058594 C 297.015625 209.085938 296.546875 208.15625 295.992188 207.269531 C 295.4375 206.386719 294.804688 205.558594 294.09375 204.789062 C 293.386719 204.019531 292.613281 203.320312 291.773438 202.695312 C 290.933594 202.066406 290.042969 201.523438 289.101562 201.0625 C 288.160156 200.597656 287.183594 200.226562 286.171875 199.945312 C 285.160156 199.660156 284.132812 199.472656 283.085938 199.382812 Z M 280.617188 257.6875 L 281.59375 257.6875 C 282.148438 257.6875 282.703125 257.660156 283.253906 257.605469 C 283.808594 257.550781 284.355469 257.46875 284.898438 257.363281 C 285.445312 257.253906 285.984375 257.121094 286.515625 256.960938 C 287.046875 256.800781 287.566406 256.613281 288.082031 256.402344 C 288.59375 256.191406 289.09375 255.953125 289.582031 255.695312 C 290.074219 255.433594 290.550781 255.152344 291.011719 254.84375 C 291.472656 254.539062 291.917969 254.210938 292.347656 253.859375 C 292.777344 253.507812 293.1875 253.140625 293.578125 252.75 C 293.972656 252.359375 294.34375 251.949219 294.699219 251.523438 C 295.050781 251.097656 295.378906 250.65625 295.6875 250.195312 C 295.996094 249.738281 296.28125 249.265625 296.542969 248.78125 C 296.808594 248.292969 297.042969 247.796875 297.257812 247.285156 C 297.46875 246.777344 297.65625 246.257812 297.820312 245.730469 C 297.980469 245.203125 298.113281 244.667969 298.222656 244.125 C 298.332031 243.585938 298.414062 243.042969 298.46875 242.492188 C 298.523438 241.941406 298.550781 241.394531 298.554688 240.839844 L 298.554688 227.855469 L 263.65625 227.855469 L 263.65625 240.839844 C 263.65625 241.394531 263.683594 241.941406 263.742188 242.492188 C 263.796875 243.042969 263.878906 243.585938 263.984375 244.125 C 264.09375 244.667969 264.230469 245.203125 264.390625 245.730469 C 264.554688 246.257812 264.742188 246.777344 264.953125 247.285156 C 265.164062 247.796875 265.402344 248.292969 265.664062 248.78125 C 265.925781 249.265625 266.210938 249.738281 266.519531 250.195312 C 266.828125 250.65625 267.160156 251.097656 267.511719 251.523438 C 267.863281 251.949219 268.238281 252.359375 268.628906 252.75 C 269.023438 253.140625 269.433594 253.507812 269.863281 253.859375 C 270.292969 254.210938 270.738281 254.539062 271.199219 254.84375 C 271.660156 255.152344 272.136719 255.433594 272.625 255.695312 C 273.117188 255.953125 273.617188 256.191406 274.128906 256.402344 C 274.644531 256.613281 275.164062 256.800781 275.695312 256.960938 C 276.226562 257.121094 276.765625 257.253906 277.308594 257.363281 C 277.855469 257.46875 278.402344 257.550781 278.957031 257.605469 C 279.507812 257.660156 280.0625 257.6875 280.617188 257.6875 Z M 263.65625 216.15625 L 263.65625 223.917969 L 279.125 223.917969 L 279.125 222.8125 C 278.445312 222.605469 277.816406 222.296875 277.238281 221.890625 C 276.660156 221.480469 276.160156 220.996094 275.738281 220.429688 C 275.316406 219.863281 274.996094 219.246094 274.773438 218.578125 C 274.546875 217.910156 274.4375 217.222656 274.433594 216.519531 L 274.433594 208.773438 C 274.4375 208.070312 274.546875 207.382812 274.773438 206.714844 C 274.996094 206.046875 275.316406 205.429688 275.738281 204.863281 C 276.160156 204.296875 276.660156 203.808594 277.238281 203.402344 C 277.816406 202.996094 278.445312 202.6875 279.125 202.480469 L 279.125 199.382812 C 278.078125 199.472656 277.050781 199.660156 276.039062 199.945312 C 275.027344 200.226562 274.050781 200.597656 273.109375 201.0625 C 272.167969 201.523438 271.277344 202.066406 270.4375 202.695312 C 269.597656 203.320312 268.824219 204.019531 268.113281 204.789062 C 267.40625 205.558594 266.773438 206.386719 266.21875 207.269531 C 265.664062 208.15625 265.195312 209.085938 264.816406 210.058594 C 264.433594 211.03125 264.144531 212.027344 263.949219 213.054688 C 263.757812 214.078125 263.660156 215.113281 263.65625 216.15625 Z M 263.65625 216.15625 " fill-opacity="1" fill-rule="nonzero"/></g><g fill="rgb(18.03894%, 17.649841%, 17.649841%)" fill-opacity="1"><g transform="translate(128.375943, 228.539261)"><g><path d="M 3.132812 0.203125 C 5.019531 0.203125 7.035156 -1.15625 7.035156 -4.011719 L 7.035156 -13.066406 C 7.035156 -13.414062 6.835938 -13.597656 6.503906 -13.597656 L 4.78125 -13.597656 C 4.488281 -13.597656 4.324219 -13.414062 4.324219 -13.121094 L 4.324219 -3.609375 C 4.324219 -2.933594 3.738281 -2.363281 3.042969 -2.363281 C 2.21875 -2.363281 1.867188 -2.804688 1.59375 -3.003906 C 1.539062 -3.042969 1.484375 -3.078125 1.410156 -3.078125 C 1.320312 -3.078125 1.210938 -3.023438 1.0625 -2.875 L -0.0195312 -1.6875 C -0.109375 -1.574219 -0.21875 -1.410156 -0.0195312 -1.210938 C 0.824219 -0.3125 1.941406 0.203125 3.132812 0.203125 Z M 3.132812 0.203125 "/></g></g></g><g fill="rgb(18.03894%, 17.649841%, 17.649841%)" fill-opacity="1"><g transform="translate(137.775744, 228.539261)"><g><path d="M 14.785156 -6.796875 C 14.785156 -10.683594 11.636719 -13.796875 7.769531 -13.796875 C 3.902344 -13.796875 0.804688 -10.683594 0.804688 -6.796875 C 0.804688 -2.933594 3.902344 0.183594 7.769531 0.183594 C 11.636719 0.183594 14.785156 -2.933594 14.785156 -6.796875 Z M 12.09375 -6.796875 C 12.09375 -4.34375 10.242188 -2.382812 7.769531 -2.382812 C 5.3125 -2.382812 3.480469 -4.34375 3.480469 -6.796875 C 3.480469 -9.273438 5.3125 -11.230469 7.769531 -11.230469 C 10.242188 -11.230469 12.09375 -9.273438 12.09375 -6.796875 Z M 12.09375 -6.796875 "/></g></g></g><g fill="rgb(18.03894%, 17.649841%, 17.649841%)" fill-opacity="1"><g transform="translate(154.468174, 228.539261)"><g><path d="M 3.976562 -13.191406 C 3.976562 -13.414062 3.738281 -13.597656 3.554688 -13.597656 L 1.667969 -13.597656 C 1.449219 -13.597656 1.28125 -13.375 1.28125 -13.191406 L 1.28125 -5.367188 C 1.28125 -2.289062 3.792969 0.21875 6.890625 0.21875 C 9.96875 0.21875 12.476562 -2.289062 12.476562 -5.367188 L 12.476562 -13.191406 C 12.476562 -13.429688 12.238281 -13.597656 12.019531 -13.597656 L 10.207031 -13.597656 C 9.96875 -13.597656 9.785156 -13.414062 9.785156 -13.191406 L 9.785156 -5.367188 C 9.785156 -3.664062 8.59375 -2.253906 6.890625 -2.253906 C 5.167969 -2.253906 3.976562 -3.664062 3.976562 -5.367188 Z M 3.976562 -13.191406 "/></g></g></g><g fill="rgb(18.03894%, 17.649841%, 17.649841%)" fill-opacity="1"><g transform="translate(169.30996, 228.539261)"><g><path d="M 1.484375 -0.367188 C 1.484375 -0.128906 1.59375 0 1.832031 0 L 3.792969 0 C 4.050781 0 4.160156 -0.128906 4.160156 -0.367188 L 4.160156 -4.710938 L 6.945312 -4.710938 L 9.125 -0.3125 C 9.234375 -0.0742188 9.34375 0 9.546875 0 L 11.910156 0 C 12.148438 0 12.238281 -0.21875 12.148438 -0.386719 L 9.65625 -5.332031 C 11.03125 -6.136719 11.964844 -7.585938 11.964844 -9.125 C 11.964844 -11.433594 10.167969 -13.597656 7.660156 -13.597656 L 1.832031 -13.597656 C 1.59375 -13.597656 1.484375 -13.429688 1.484375 -13.230469 Z M 7.019531 -11.230469 C 8.28125 -11.230469 9.234375 -10.335938 9.234375 -9.179688 C 9.234375 -7.988281 8.28125 -7.128906 7.019531 -7.128906 L 4.160156 -7.128906 L 4.160156 -11.230469 Z M 7.019531 -11.230469 "/></g></g></g><g fill="rgb(18.03894%, 17.649841%, 17.649841%)" fill-opacity="1"><g transform="translate(182.667573, 228.539261)"><g><path d="M 1.484375 -0.402344 C 1.484375 -0.128906 1.613281 0 1.886719 0 L 3.738281 0 C 4.03125 0 4.160156 -0.128906 4.140625 -0.402344 L 4.140625 -9.453125 L 10.5 -0.292969 C 10.644531 -0.128906 10.738281 0 11.03125 0 L 12.84375 0 C 13.136719 0 13.285156 -0.128906 13.285156 -0.402344 L 13.285156 -13.191406 C 13.285156 -13.429688 13.027344 -13.597656 12.84375 -13.597656 L 10.992188 -13.597656 C 10.847656 -13.597656 10.664062 -13.539062 10.589844 -13.320312 L 10.589844 -4.652344 L 4.5625 -13.320312 C 4.472656 -13.503906 4.214844 -13.597656 4.03125 -13.597656 L 1.886719 -13.597656 C 1.613281 -13.597656 1.484375 -13.414062 1.484375 -13.191406 Z M 1.484375 -0.402344 "/></g></g></g><g fill="rgb(18.03894%, 17.649841%, 17.649841%)" fill-opacity="1"><g transform="translate(198.260605, 228.539261)"><g><path d="M 0.273438 -0.386719 C 0.164062 -0.128906 0.273438 0 0.511719 0 L 2.527344 0 C 2.730469 0 2.894531 -0.0898438 2.988281 -0.328125 L 3.847656 -2.527344 L 9.472656 -2.527344 L 10.351562 -0.328125 C 10.445312 -0.0898438 10.589844 0 10.8125 0 L 12.808594 0 C 13.046875 0 13.175781 -0.148438 13.066406 -0.386719 L 7.898438 -13.246094 C 7.804688 -13.484375 7.640625 -13.597656 7.4375 -13.597656 L 5.898438 -13.597656 C 5.71875 -13.597656 5.550781 -13.484375 5.441406 -13.246094 Z M 6.667969 -10.078125 L 8.59375 -4.890625 L 4.710938 -4.890625 Z M 6.667969 -10.078125 "/></g></g></g><g fill="rgb(18.03894%, 17.649841%, 17.649841%)" fill-opacity="1"><g transform="translate(212.442753, 228.539261)"><g><path d="M 1.484375 -0.402344 C 1.484375 -0.128906 1.628906 0 1.886719 0 L 9.527344 0 C 9.804688 -0.0195312 9.929688 -0.164062 9.929688 -0.402344 L 9.929688 -2.070312 C 9.929688 -2.328125 9.746094 -2.492188 9.527344 -2.492188 L 4.175781 -2.492188 L 4.175781 -13.210938 C 4.160156 -13.484375 4.011719 -13.613281 3.773438 -13.613281 L 1.90625 -13.613281 C 1.648438 -13.613281 1.484375 -13.429688 1.484375 -13.210938 Z M 1.484375 -0.402344 "/></g></g></g><g fill="rgb(18.03894%, 17.649841%, 17.649841%)" fill-opacity="1"><g transform="translate(224.023009, 228.539261)"><g><path d="M 1.484375 -0.367188 C 1.484375 -0.128906 1.59375 0 1.832031 0 L 3.792969 0 C 4.050781 0 4.160156 -0.128906 4.160156 -0.367188 L 4.160156 -4.710938 L 6.945312 -4.710938 L 9.125 -0.3125 C 9.234375 -0.0742188 9.34375 0 9.546875 0 L 11.910156 0 C 12.148438 0 12.238281 -0.21875 12.148438 -0.386719 L 9.65625 -5.332031 C 11.03125 -6.136719 11.964844 -7.585938 11.964844 -9.125 C 11.964844 -11.433594 10.167969 -13.597656 7.660156 -13.597656 L 1.832031 -13.597656 C 1.59375 -13.597656 1.484375 -13.429688 1.484375 -13.230469 Z M 7.019531 -11.230469 C 8.28125 -11.230469 9.234375 -10.335938 9.234375 -9.179688 C 9.234375 -7.988281 8.28125 -7.128906 7.019531 -7.128906 L 4.160156 -7.128906 L 4.160156 -11.230469 Z M 7.019531 -11.230469 "/></g></g></g></svg>