<svg xmlns="http://www.w3.org/2000/svg" xmlns:xlink="http://www.w3.org/1999/xlink" width="250" zoomAndPan="magnify" viewBox="0 0 187.5 187.499995" height="250" preserveAspectRatio="xMidYMid meet" version="1.0"><defs><g/><clipPath id="id1"><path d="M 12 11.820312 L 76 11.820312 L 76 113 L 12 113 Z M 12 11.820312 " clip-rule="nonzero"/></clipPath><clipPath id="id2"><path d="M 0 25 L 146.25 25 L 146.25 125.820312 L 0 125.820312 Z M 0 25 " clip-rule="nonzero"/></clipPath><clipPath id="id3"><path d="M 70 11.820312 L 135 11.820312 L 135 113 L 70 113 Z M 70 11.820312 " clip-rule="nonzero"/></clipPath><clipPath id="id4"><path d="M 143.238281 93.570312 L 187 93.570312 L 187 178.320312 L 143.238281 178.320312 Z M 143.238281 93.570312 " clip-rule="nonzero"/></clipPath></defs><g clip-path="url(#id1)"><path fill="rgb(18.03894%, 17.649841%, 17.649841%)" d="M 73.03125 112.40625 L 14.132812 112.40625 C 13.855469 112.40625 13.582031 112.351562 13.324219 112.246094 C 13.066406 112.136719 12.835938 111.984375 12.636719 111.785156 C 12.4375 111.585938 12.285156 111.359375 12.179688 111.097656 C 12.070312 110.839844 12.019531 110.570312 12.019531 110.289062 L 12.019531 13.933594 C 12.019531 13.652344 12.070312 13.382812 12.179688 13.125 C 12.285156 12.863281 12.4375 12.636719 12.636719 12.4375 C 12.835938 12.238281 13.066406 12.085938 13.324219 11.980469 C 13.582031 11.871094 13.855469 11.816406 14.132812 11.816406 L 59.429688 11.816406 C 60.460938 11.820312 61.484375 11.921875 62.496094 12.121094 C 63.507812 12.324219 64.488281 12.625 65.441406 13.019531 C 66.394531 13.414062 67.300781 13.898438 68.15625 14.472656 C 69.015625 15.042969 69.808594 15.695312 70.539062 16.425781 C 71.269531 17.15625 71.917969 17.949219 72.492188 18.804688 C 73.066406 19.664062 73.550781 20.566406 73.945312 21.519531 C 74.339844 22.472656 74.640625 23.453125 74.839844 24.464844 C 75.042969 25.476562 75.144531 26.5 75.148438 27.53125 L 75.148438 110.289062 C 75.148438 110.570312 75.09375 110.839844 74.984375 111.097656 C 74.878906 111.359375 74.726562 111.585938 74.527344 111.785156 C 74.328125 111.984375 74.097656 112.136719 73.839844 112.246094 C 73.582031 112.351562 73.3125 112.40625 73.03125 112.40625 Z M 16.25 108.175781 L 70.914062 108.175781 L 70.914062 27.53125 C 70.914062 26.777344 70.839844 26.03125 70.691406 25.292969 C 70.542969 24.550781 70.324219 23.835938 70.035156 23.140625 C 69.746094 22.441406 69.394531 21.78125 68.976562 21.15625 C 68.554688 20.527344 68.078125 19.949219 67.546875 19.414062 C 67.015625 18.882812 66.433594 18.40625 65.808594 17.988281 C 65.179688 17.570312 64.519531 17.214844 63.824219 16.925781 C 63.125 16.636719 62.410156 16.417969 61.667969 16.273438 C 60.929688 16.125 60.183594 16.050781 59.429688 16.050781 L 16.25 16.050781 Z M 16.25 108.175781 " fill-opacity="1" fill-rule="nonzero"/></g><path fill="rgb(18.03894%, 17.649841%, 17.649841%)" d="M 72.835938 25.234375 C 72.964844 25.996094 73.03125 26.761719 73.03125 27.53125 L 73.03125 29.464844 L 73.105469 29.464844 L 73.105469 27.53125 C 73.105469 26.761719 73.167969 25.996094 73.296875 25.234375 Z M 72.835938 25.234375 " fill-opacity="1" fill-rule="nonzero"/><g clip-path="url(#id2)"><path fill="rgb(18.03894%, 17.649841%, 17.649841%)" d="M 138.492188 25.234375 L 132 25.234375 L 132 29.464844 L 138.492188 29.464844 C 138.949219 29.46875 139.390625 29.554688 139.8125 29.730469 C 140.238281 29.90625 140.609375 30.15625 140.933594 30.480469 C 141.257812 30.804688 141.507812 31.175781 141.683594 31.601562 C 141.859375 32.023438 141.949219 32.464844 141.949219 32.921875 L 141.949219 118.132812 C 141.949219 118.589844 141.859375 119.03125 141.683594 119.453125 C 141.507812 119.878906 141.257812 120.25 140.933594 120.574219 C 140.609375 120.898438 140.238281 121.148438 139.8125 121.324219 C 139.390625 121.5 138.949219 121.585938 138.492188 121.585938 L 7.757812 121.585938 C 7.300781 121.585938 6.859375 121.5 6.4375 121.324219 C 6.011719 121.148438 5.640625 120.898438 5.316406 120.574219 C 4.992188 120.25 4.742188 119.878906 4.566406 119.453125 C 4.390625 119.03125 4.300781 118.589844 4.300781 118.132812 L 4.300781 32.921875 C 4.300781 32.464844 4.390625 32.023438 4.566406 31.601562 C 4.742188 31.175781 4.992188 30.804688 5.316406 30.480469 C 5.640625 30.15625 6.011719 29.90625 6.4375 29.730469 C 6.859375 29.554688 7.300781 29.46875 7.757812 29.464844 L 14.132812 29.464844 L 14.132812 25.234375 L 7.757812 25.234375 C 7.253906 25.234375 6.753906 25.285156 6.257812 25.382812 C 5.761719 25.484375 5.28125 25.628906 4.816406 25.824219 C 4.351562 26.015625 3.90625 26.253906 3.488281 26.535156 C 3.070312 26.8125 2.679688 27.132812 2.324219 27.488281 C 1.96875 27.847656 1.648438 28.234375 1.367188 28.652344 C 1.089844 29.074219 0.851562 29.515625 0.65625 29.980469 C 0.464844 30.449219 0.316406 30.925781 0.21875 31.421875 C 0.121094 31.917969 0.0703125 32.417969 0.0703125 32.921875 L 0.0703125 118.132812 C 0.0703125 118.636719 0.121094 119.136719 0.21875 119.632812 C 0.320312 120.128906 0.464844 120.609375 0.65625 121.074219 C 0.851562 121.539062 1.089844 121.980469 1.367188 122.402344 C 1.648438 122.820312 1.96875 123.207031 2.324219 123.566406 C 2.679688 123.921875 3.070312 124.242188 3.488281 124.519531 C 3.910156 124.800781 4.351562 125.039062 4.816406 125.230469 C 5.285156 125.425781 5.765625 125.570312 6.257812 125.671875 C 6.753906 125.769531 7.253906 125.820312 7.757812 125.820312 L 138.492188 125.820312 C 138.996094 125.820312 139.496094 125.769531 139.992188 125.671875 C 140.488281 125.570312 140.96875 125.425781 141.433594 125.230469 C 141.898438 125.039062 142.34375 124.800781 142.761719 124.519531 C 143.183594 124.242188 143.570312 123.921875 143.925781 123.566406 C 144.285156 123.207031 144.601562 122.820312 144.882812 122.402344 C 145.164062 121.980469 145.398438 121.539062 145.59375 121.074219 C 145.785156 120.609375 145.933594 120.128906 146.03125 119.632812 C 146.128906 119.136719 146.179688 118.636719 146.179688 118.132812 L 146.179688 32.921875 C 146.179688 32.417969 146.128906 31.917969 146.03125 31.421875 C 145.933594 30.925781 145.785156 30.445312 145.59375 29.980469 C 145.398438 29.515625 145.164062 29.074219 144.882812 28.652344 C 144.601562 28.234375 144.285156 27.84375 143.925781 27.488281 C 143.570312 27.132812 143.179688 26.8125 142.761719 26.53125 C 142.34375 26.253906 141.898438 26.015625 141.433594 25.824219 C 140.96875 25.628906 140.488281 25.484375 139.992188 25.382812 C 139.496094 25.285156 138.996094 25.234375 138.492188 25.234375 Z M 138.492188 25.234375 " fill-opacity="1" fill-rule="nonzero"/></g><g clip-path="url(#id3)"><path fill="rgb(18.03894%, 17.649841%, 17.649841%)" d="M 132 112.40625 L 73.105469 112.40625 C 72.824219 112.40625 72.554688 112.351562 72.292969 112.246094 C 72.035156 112.136719 71.804688 111.984375 71.609375 111.785156 C 71.410156 111.585938 71.257812 111.359375 71.148438 111.097656 C 71.042969 110.839844 70.988281 110.570312 70.988281 110.289062 L 70.988281 27.53125 C 70.988281 26.5 71.089844 25.476562 71.292969 24.464844 C 71.496094 23.453125 71.792969 22.472656 72.1875 21.519531 C 72.585938 20.566406 73.070312 19.664062 73.640625 18.804688 C 74.214844 17.949219 74.867188 17.15625 75.597656 16.425781 C 76.324219 15.695312 77.121094 15.042969 77.976562 14.472656 C 78.835938 13.898438 79.738281 13.414062 80.691406 13.019531 C 81.644531 12.625 82.628906 12.324219 83.640625 12.121094 C 84.652344 11.921875 85.671875 11.820312 86.703125 11.816406 L 132 11.816406 C 132.28125 11.816406 132.550781 11.871094 132.8125 11.980469 C 133.070312 12.085938 133.300781 12.238281 133.496094 12.4375 C 133.695312 12.636719 133.847656 12.863281 133.957031 13.125 C 134.0625 13.382812 134.117188 13.652344 134.117188 13.933594 L 134.117188 110.289062 C 134.117188 110.570312 134.0625 110.839844 133.957031 111.097656 C 133.847656 111.359375 133.695312 111.585938 133.496094 111.785156 C 133.300781 111.984375 133.070312 112.136719 132.8125 112.246094 C 132.550781 112.351562 132.28125 112.40625 132 112.40625 Z M 75.222656 108.175781 L 129.886719 108.175781 L 129.886719 16.050781 L 86.703125 16.050781 C 85.949219 16.050781 85.203125 16.125 84.464844 16.273438 C 83.726562 16.417969 83.007812 16.636719 82.3125 16.925781 C 81.617188 17.214844 80.953125 17.570312 80.328125 17.988281 C 79.699219 18.40625 79.121094 18.882812 78.585938 19.414062 C 78.054688 19.949219 77.578125 20.527344 77.160156 21.15625 C 76.742188 21.78125 76.386719 22.441406 76.097656 23.136719 C 75.808594 23.835938 75.589844 24.550781 75.441406 25.292969 C 75.296875 26.03125 75.222656 26.777344 75.21875 27.53125 Z M 75.222656 108.175781 " fill-opacity="1" fill-rule="nonzero"/></g><path fill="rgb(18.03894%, 17.649841%, 17.649841%)" d="M 57.503906 37.140625 L 29.660156 37.140625 C 29.382812 37.140625 29.109375 37.085938 28.851562 36.980469 C 28.59375 36.871094 28.363281 36.71875 28.164062 36.519531 C 27.964844 36.324219 27.8125 36.09375 27.707031 35.835938 C 27.597656 35.574219 27.546875 35.304688 27.546875 35.023438 C 27.546875 34.746094 27.597656 34.476562 27.707031 34.214844 C 27.8125 33.957031 27.964844 33.726562 28.164062 33.53125 C 28.363281 33.332031 28.59375 33.179688 28.851562 33.070312 C 29.109375 32.964844 29.382812 32.910156 29.660156 32.910156 L 57.503906 32.910156 C 57.785156 32.910156 58.054688 32.964844 58.3125 33.070312 C 58.570312 33.179688 58.800781 33.332031 59 33.53125 C 59.199219 33.726562 59.351562 33.957031 59.457031 34.214844 C 59.566406 34.476562 59.621094 34.746094 59.621094 35.023438 C 59.621094 35.304688 59.566406 35.574219 59.457031 35.835938 C 59.351562 36.09375 59.199219 36.324219 59 36.519531 C 58.800781 36.71875 58.570312 36.871094 58.3125 36.980469 C 58.054688 37.085938 57.785156 37.140625 57.503906 37.140625 Z M 57.503906 37.140625 " fill-opacity="1" fill-rule="nonzero"/><path fill="rgb(18.03894%, 17.649841%, 17.649841%)" d="M 57.503906 51.421875 L 29.660156 51.421875 C 29.382812 51.421875 29.109375 51.371094 28.851562 51.261719 C 28.59375 51.15625 28.363281 51.003906 28.164062 50.804688 C 27.964844 50.605469 27.8125 50.378906 27.707031 50.117188 C 27.597656 49.859375 27.546875 49.589844 27.546875 49.308594 C 27.546875 49.027344 27.597656 48.757812 27.707031 48.5 C 27.8125 48.238281 27.964844 48.011719 28.164062 47.8125 C 28.363281 47.613281 28.59375 47.460938 28.851562 47.355469 C 29.109375 47.246094 29.382812 47.191406 29.660156 47.191406 L 57.503906 47.191406 C 57.785156 47.191406 58.054688 47.246094 58.3125 47.355469 C 58.570312 47.460938 58.800781 47.613281 59 47.8125 C 59.199219 48.011719 59.351562 48.238281 59.457031 48.5 C 59.566406 48.757812 59.621094 49.027344 59.621094 49.308594 C 59.621094 49.589844 59.566406 49.859375 59.457031 50.117188 C 59.351562 50.378906 59.199219 50.605469 59 50.804688 C 58.800781 51.003906 58.570312 51.15625 58.3125 51.261719 C 58.054688 51.371094 57.785156 51.421875 57.503906 51.421875 Z M 57.503906 51.421875 " fill-opacity="1" fill-rule="nonzero"/><path fill="rgb(18.03894%, 17.649841%, 17.649841%)" d="M 57.503906 65.707031 L 29.660156 65.707031 C 29.382812 65.707031 29.109375 65.652344 28.851562 65.542969 C 28.59375 65.4375 28.363281 65.285156 28.164062 65.085938 C 27.964844 64.886719 27.8125 64.660156 27.707031 64.398438 C 27.597656 64.140625 27.546875 63.871094 27.546875 63.589844 C 27.546875 63.308594 27.597656 63.039062 27.707031 62.78125 C 27.8125 62.523438 27.964844 62.292969 28.164062 62.09375 C 28.363281 61.894531 28.59375 61.742188 28.851562 61.636719 C 29.109375 61.527344 29.382812 61.476562 29.660156 61.476562 L 57.503906 61.476562 C 57.785156 61.476562 58.054688 61.527344 58.3125 61.636719 C 58.570312 61.742188 58.800781 61.894531 59 62.09375 C 59.199219 62.292969 59.351562 62.523438 59.457031 62.78125 C 59.566406 63.039062 59.621094 63.308594 59.621094 63.589844 C 59.621094 63.871094 59.566406 64.140625 59.457031 64.398438 C 59.351562 64.660156 59.199219 64.886719 59 65.085938 C 58.800781 65.285156 58.570312 65.4375 58.3125 65.542969 C 58.054688 65.652344 57.785156 65.707031 57.503906 65.707031 Z M 57.503906 65.707031 " fill-opacity="1" fill-rule="nonzero"/><path fill="rgb(18.03894%, 17.649841%, 17.649841%)" d="M 57.503906 79.988281 L 29.660156 79.988281 C 29.382812 79.988281 29.109375 79.9375 28.851562 79.828125 C 28.59375 79.722656 28.363281 79.566406 28.164062 79.371094 C 27.964844 79.171875 27.8125 78.941406 27.707031 78.683594 C 27.597656 78.425781 27.546875 78.15625 27.546875 77.875 C 27.546875 77.59375 27.597656 77.324219 27.707031 77.066406 C 27.8125 76.804688 27.964844 76.578125 28.164062 76.378906 C 28.363281 76.179688 28.59375 76.027344 28.851562 75.917969 C 29.109375 75.8125 29.382812 75.757812 29.660156 75.757812 L 57.503906 75.757812 C 57.785156 75.757812 58.054688 75.8125 58.3125 75.917969 C 58.570312 76.027344 58.800781 76.179688 59 76.378906 C 59.199219 76.578125 59.351562 76.804688 59.457031 77.066406 C 59.566406 77.324219 59.621094 77.59375 59.621094 77.875 C 59.621094 78.15625 59.566406 78.425781 59.457031 78.683594 C 59.351562 78.941406 59.199219 79.171875 59 79.371094 C 58.800781 79.566406 58.570312 79.722656 58.3125 79.828125 C 58.054688 79.9375 57.785156 79.988281 57.503906 79.988281 Z M 57.503906 79.988281 " fill-opacity="1" fill-rule="nonzero"/><path fill="rgb(18.03894%, 17.649841%, 17.649841%)" d="M 57.503906 94.273438 L 29.660156 94.273438 C 29.382812 94.273438 29.109375 94.21875 28.851562 94.113281 C 28.59375 94.003906 28.363281 93.851562 28.164062 93.652344 C 27.964844 93.453125 27.8125 93.226562 27.707031 92.964844 C 27.597656 92.707031 27.546875 92.4375 27.546875 92.15625 C 27.546875 91.875 27.597656 91.605469 27.707031 91.347656 C 27.8125 91.089844 27.964844 90.859375 28.164062 90.660156 C 28.363281 90.460938 28.59375 90.308594 28.851562 90.203125 C 29.109375 90.09375 29.382812 90.042969 29.660156 90.042969 L 57.503906 90.042969 C 57.785156 90.042969 58.054688 90.09375 58.3125 90.203125 C 58.570312 90.308594 58.800781 90.460938 59 90.660156 C 59.199219 90.859375 59.351562 91.089844 59.457031 91.347656 C 59.566406 91.605469 59.621094 91.875 59.621094 92.15625 C 59.621094 92.4375 59.566406 92.707031 59.457031 92.964844 C 59.351562 93.226562 59.199219 93.453125 59 93.652344 C 58.800781 93.851562 58.570312 94.003906 58.3125 94.113281 C 58.054688 94.21875 57.785156 94.273438 57.503906 94.273438 Z M 57.503906 94.273438 " fill-opacity="1" fill-rule="nonzero"/><path fill="rgb(18.03894%, 17.649841%, 17.649841%)" d="M 116.472656 37.140625 L 88.632812 37.140625 C 88.351562 37.140625 88.082031 37.085938 87.820312 36.980469 C 87.5625 36.871094 87.332031 36.71875 87.136719 36.519531 C 86.9375 36.324219 86.785156 36.09375 86.675781 35.835938 C 86.570312 35.574219 86.515625 35.304688 86.515625 35.023438 C 86.515625 34.746094 86.570312 34.476562 86.675781 34.214844 C 86.785156 33.957031 86.9375 33.726562 87.136719 33.53125 C 87.332031 33.332031 87.5625 33.179688 87.820312 33.070312 C 88.082031 32.964844 88.351562 32.910156 88.632812 32.910156 L 116.472656 32.910156 C 116.753906 32.910156 117.023438 32.964844 117.28125 33.070312 C 117.542969 33.179688 117.769531 33.332031 117.96875 33.53125 C 118.167969 33.726562 118.320312 33.957031 118.429688 34.214844 C 118.535156 34.476562 118.589844 34.746094 118.589844 35.023438 C 118.589844 35.304688 118.535156 35.574219 118.429688 35.835938 C 118.320312 36.09375 118.167969 36.324219 117.96875 36.519531 C 117.769531 36.71875 117.542969 36.871094 117.28125 36.980469 C 117.023438 37.085938 116.753906 37.140625 116.472656 37.140625 Z M 116.472656 37.140625 " fill-opacity="1" fill-rule="nonzero"/><path fill="rgb(18.03894%, 17.649841%, 17.649841%)" d="M 116.472656 51.421875 L 88.632812 51.421875 C 88.351562 51.421875 88.082031 51.371094 87.820312 51.261719 C 87.5625 51.15625 87.332031 51.003906 87.136719 50.804688 C 86.9375 50.605469 86.785156 50.378906 86.675781 50.117188 C 86.570312 49.859375 86.515625 49.589844 86.515625 49.308594 C 86.515625 49.027344 86.570312 48.757812 86.675781 48.5 C 86.785156 48.238281 86.9375 48.011719 87.136719 47.8125 C 87.332031 47.613281 87.5625 47.460938 87.820312 47.355469 C 88.082031 47.246094 88.351562 47.191406 88.632812 47.191406 L 116.472656 47.191406 C 116.753906 47.191406 117.023438 47.246094 117.28125 47.355469 C 117.542969 47.460938 117.769531 47.613281 117.96875 47.8125 C 118.167969 48.011719 118.320312 48.238281 118.429688 48.5 C 118.535156 48.757812 118.589844 49.027344 118.589844 49.308594 C 118.589844 49.589844 118.535156 49.859375 118.429688 50.117188 C 118.320312 50.378906 118.167969 50.605469 117.96875 50.804688 C 117.769531 51.003906 117.542969 51.15625 117.28125 51.261719 C 117.023438 51.371094 116.753906 51.421875 116.472656 51.421875 Z M 116.472656 51.421875 " fill-opacity="1" fill-rule="nonzero"/><path fill="rgb(18.03894%, 17.649841%, 17.649841%)" d="M 116.472656 65.707031 L 88.632812 65.707031 C 88.351562 65.707031 88.082031 65.652344 87.820312 65.542969 C 87.5625 65.4375 87.332031 65.285156 87.136719 65.085938 C 86.9375 64.886719 86.785156 64.660156 86.675781 64.398438 C 86.570312 64.140625 86.515625 63.871094 86.515625 63.589844 C 86.515625 63.308594 86.570312 63.039062 86.675781 62.78125 C 86.785156 62.523438 86.9375 62.292969 87.136719 62.09375 C 87.332031 61.894531 87.5625 61.742188 87.820312 61.636719 C 88.082031 61.527344 88.351562 61.476562 88.632812 61.476562 L 116.472656 61.476562 C 116.753906 61.476562 117.023438 61.527344 117.28125 61.636719 C 117.542969 61.742188 117.769531 61.894531 117.96875 62.09375 C 118.167969 62.292969 118.320312 62.523438 118.429688 62.78125 C 118.535156 63.039062 118.589844 63.308594 118.589844 63.589844 C 118.589844 63.871094 118.535156 64.140625 118.429688 64.398438 C 118.320312 64.660156 118.167969 64.886719 117.96875 65.085938 C 117.769531 65.285156 117.542969 65.4375 117.28125 65.542969 C 117.023438 65.652344 116.753906 65.707031 116.472656 65.707031 Z M 116.472656 65.707031 " fill-opacity="1" fill-rule="nonzero"/><path fill="rgb(18.03894%, 17.649841%, 17.649841%)" d="M 116.472656 79.988281 L 88.632812 79.988281 C 88.351562 79.988281 88.082031 79.9375 87.820312 79.828125 C 87.5625 79.722656 87.332031 79.566406 87.136719 79.371094 C 86.9375 79.171875 86.785156 78.941406 86.675781 78.683594 C 86.570312 78.425781 86.515625 78.15625 86.515625 77.875 C 86.515625 77.59375 86.570312 77.324219 86.675781 77.066406 C 86.785156 76.804688 86.9375 76.578125 87.136719 76.378906 C 87.332031 76.179688 87.5625 76.027344 87.820312 75.917969 C 88.082031 75.8125 88.351562 75.757812 88.632812 75.757812 L 116.472656 75.757812 C 116.753906 75.757812 117.023438 75.8125 117.28125 75.917969 C 117.542969 76.027344 117.769531 76.179688 117.96875 76.378906 C 118.167969 76.578125 118.320312 76.804688 118.429688 77.066406 C 118.535156 77.324219 118.589844 77.59375 118.589844 77.875 C 118.589844 78.15625 118.535156 78.425781 118.429688 78.683594 C 118.320312 78.941406 118.167969 79.171875 117.96875 79.371094 C 117.769531 79.566406 117.542969 79.722656 117.28125 79.828125 C 117.023438 79.9375 116.753906 79.988281 116.472656 79.988281 Z M 116.472656 79.988281 " fill-opacity="1" fill-rule="nonzero"/><path fill="rgb(18.03894%, 17.649841%, 17.649841%)" d="M 116.472656 94.273438 L 88.632812 94.273438 C 88.351562 94.273438 88.082031 94.21875 87.820312 94.113281 C 87.5625 94.003906 87.332031 93.851562 87.136719 93.652344 C 86.9375 93.453125 86.785156 93.226562 86.675781 92.964844 C 86.570312 92.707031 86.515625 92.4375 86.515625 92.15625 C 86.515625 91.875 86.570312 91.605469 86.675781 91.347656 C 86.785156 91.089844 86.9375 90.859375 87.136719 90.660156 C 87.332031 90.460938 87.5625 90.308594 87.820312 90.203125 C 88.082031 90.09375 88.351562 90.042969 88.632812 90.042969 L 116.472656 90.042969 C 116.753906 90.042969 117.023438 90.09375 117.28125 90.203125 C 117.542969 90.308594 117.769531 90.460938 117.96875 90.660156 C 118.167969 90.859375 118.320312 91.089844 118.429688 91.347656 C 118.535156 91.605469 118.589844 91.875 118.589844 92.15625 C 118.589844 92.4375 118.535156 92.707031 118.429688 92.964844 C 118.320312 93.226562 118.167969 93.453125 117.96875 93.652344 C 117.769531 93.851562 117.542969 94.003906 117.28125 94.113281 C 117.023438 94.21875 116.753906 94.273438 116.472656 94.273438 Z M 116.472656 94.273438 " fill-opacity="1" fill-rule="nonzero"/><g clip-path="url(#id4)"><path fill="rgb(18.03894%, 17.649841%, 17.649841%)" d="M 145.851562 97.433594 C 145.597656 97.433594 145.355469 97.382812 145.121094 97.285156 C 144.886719 97.1875 144.679688 97.050781 144.5 96.871094 C 144.320312 96.691406 144.179688 96.484375 144.082031 96.25 C 143.984375 96.011719 143.9375 95.769531 143.9375 95.515625 C 143.9375 95.261719 143.984375 95.015625 144.082031 94.78125 C 144.179688 94.546875 144.320312 94.339844 144.5 94.160156 C 144.679688 93.980469 144.886719 93.839844 145.121094 93.742188 C 145.355469 93.644531 145.597656 93.597656 145.851562 93.597656 C 153.40625 93.597656 159.257812 95.773438 163.246094 100.066406 C 164.921875 101.980469 166.222656 104.121094 167.15625 106.488281 C 168.085938 108.855469 168.59375 111.308594 168.671875 113.851562 C 169.914062 113.96875 171.136719 114.203125 172.335938 114.546875 C 173.53125 114.890625 174.691406 115.34375 175.804688 115.902344 C 176.921875 116.460938 177.976562 117.117188 178.972656 117.871094 C 179.964844 118.625 180.882812 119.464844 181.722656 120.386719 C 182.5625 121.308594 183.3125 122.300781 183.96875 123.363281 C 184.625 124.425781 185.175781 125.539062 185.628906 126.703125 C 186.078125 127.867188 186.421875 129.0625 186.652344 130.289062 C 186.878906 131.515625 186.996094 132.753906 187 134.003906 L 187 158.050781 C 186.996094 158.710938 186.964844 159.375 186.898438 160.035156 C 186.832031 160.691406 186.734375 161.347656 186.605469 162 C 186.476562 162.648438 186.316406 163.289062 186.121094 163.925781 C 185.929688 164.558594 185.707031 165.183594 185.453125 165.792969 C 185.199219 166.40625 184.914062 167.003906 184.601562 167.589844 C 184.289062 168.175781 183.949219 168.742188 183.582031 169.292969 C 183.210938 169.84375 182.820312 170.375 182.398438 170.886719 C 181.976562 171.402344 181.535156 171.890625 181.066406 172.359375 C 180.597656 172.828125 180.105469 173.273438 179.59375 173.695312 C 179.082031 174.113281 178.550781 174.507812 178 174.878906 C 177.449219 175.246094 176.882812 175.585938 176.296875 175.898438 C 175.714844 176.210938 175.117188 176.496094 174.503906 176.75 C 173.890625 177.003906 173.269531 177.226562 172.636719 177.417969 C 172 177.613281 171.359375 177.773438 170.710938 177.902344 C 170.058594 178.035156 169.40625 178.132812 168.746094 178.195312 C 168.085938 178.261719 167.425781 178.296875 166.761719 178.296875 L 165.820312 178.296875 C 165.15625 178.296875 164.496094 178.261719 163.839844 178.195312 C 163.179688 178.132812 162.523438 178.035156 161.875 177.902344 C 161.226562 177.773438 160.582031 177.613281 159.949219 177.417969 C 159.316406 177.226562 158.691406 177.003906 158.082031 176.75 C 157.46875 176.496094 156.871094 176.210938 156.285156 175.898438 C 155.703125 175.585938 155.136719 175.246094 154.585938 174.878906 C 154.035156 174.507812 153.503906 174.113281 152.988281 173.695312 C 152.476562 173.273438 151.988281 172.828125 151.519531 172.359375 C 151.050781 171.890625 150.605469 171.402344 150.1875 170.886719 C 149.765625 170.375 149.371094 169.84375 149.003906 169.292969 C 148.636719 168.742188 148.292969 168.175781 147.980469 167.589844 C 147.667969 167.003906 147.386719 166.40625 147.132812 165.792969 C 146.878906 165.183594 146.65625 164.558594 146.460938 163.925781 C 146.269531 163.289062 146.109375 162.648438 145.976562 162 C 145.847656 161.347656 145.75 160.691406 145.683594 160.035156 C 145.621094 159.375 145.585938 158.710938 145.585938 158.050781 L 145.585938 134.003906 C 145.585938 133.359375 145.617188 132.71875 145.679688 132.082031 C 145.742188 131.441406 145.835938 130.808594 145.957031 130.179688 C 146.078125 129.546875 146.230469 128.925781 146.410156 128.308594 C 146.59375 127.695312 146.804688 127.085938 147.042969 126.492188 C 147.28125 125.894531 147.546875 125.3125 147.84375 124.742188 C 148.136719 124.171875 148.457031 123.617188 148.804688 123.078125 C 149.152344 122.539062 149.523438 122.015625 149.917969 121.511719 C 150.316406 121.007812 150.734375 120.523438 151.179688 120.058594 C 151.621094 119.59375 152.085938 119.152344 152.570312 118.730469 C 153.054688 118.308594 153.558594 117.914062 154.078125 117.539062 C 154.601562 117.167969 155.140625 116.820312 155.695312 116.5 C 156.25 116.179688 156.820312 115.882812 157.402344 115.617188 C 157.988281 115.351562 158.582031 115.113281 159.1875 114.902344 C 159.792969 114.691406 160.410156 114.507812 161.03125 114.355469 C 161.65625 114.203125 162.285156 114.082031 162.917969 113.988281 C 163.554688 113.898438 164.191406 113.835938 164.832031 113.804688 C 164.75 111.753906 164.335938 109.777344 163.582031 107.867188 C 162.828125 105.960938 161.78125 104.230469 160.441406 102.679688 C 157.207031 99.199219 152.296875 97.433594 145.851562 97.433594 Z M 166.292969 136.976562 C 166.640625 136.976562 166.972656 136.910156 167.292969 136.777344 C 167.613281 136.644531 167.898438 136.453125 168.144531 136.207031 C 168.390625 135.960938 168.578125 135.679688 168.710938 135.359375 C 168.84375 135.035156 168.910156 134.703125 168.910156 134.355469 L 168.910156 126.8125 C 168.910156 126.464844 168.84375 126.128906 168.710938 125.808594 C 168.578125 125.488281 168.390625 125.203125 168.144531 124.957031 C 167.898438 124.710938 167.617188 124.523438 167.292969 124.390625 C 166.972656 124.257812 166.640625 124.191406 166.292969 124.191406 C 165.945312 124.191406 165.609375 124.257812 165.289062 124.390625 C 164.96875 124.523438 164.683594 124.710938 164.441406 124.957031 C 164.195312 125.203125 164.003906 125.488281 163.871094 125.808594 C 163.738281 126.128906 163.671875 126.464844 163.671875 126.8125 L 163.671875 134.355469 C 163.671875 134.703125 163.738281 135.035156 163.871094 135.359375 C 164.003906 135.679688 164.195312 135.960938 164.441406 136.207031 C 164.6875 136.453125 164.96875 136.644531 165.289062 136.777344 C 165.609375 136.910156 165.945312 136.976562 166.292969 136.976562 Z M 168.207031 117.664062 L 168.207031 120.679688 C 168.863281 120.882812 169.46875 121.183594 170.03125 121.578125 C 170.589844 121.976562 171.074219 122.449219 171.480469 123 C 171.890625 123.550781 172.199219 124.152344 172.417969 124.804688 C 172.632812 125.457031 172.742188 126.125 172.746094 126.8125 L 172.746094 134.355469 C 172.742188 135.042969 172.632812 135.710938 172.417969 136.363281 C 172.199219 137.011719 171.890625 137.613281 171.480469 138.164062 C 171.074219 138.71875 170.589844 139.191406 170.03125 139.589844 C 169.46875 139.984375 168.863281 140.285156 168.207031 140.488281 L 168.207031 141.5625 L 183.164062 141.5625 L 183.164062 134.003906 C 183.164062 132.984375 183.070312 131.980469 182.882812 130.980469 C 182.691406 129.980469 182.414062 129.007812 182.046875 128.0625 C 181.675781 127.113281 181.226562 126.210938 180.6875 125.347656 C 180.152344 124.484375 179.539062 123.679688 178.855469 122.929688 C 178.167969 122.179688 177.417969 121.5 176.609375 120.890625 C 175.796875 120.28125 174.933594 119.75 174.023438 119.296875 C 173.113281 118.847656 172.167969 118.484375 171.191406 118.210938 C 170.214844 117.933594 169.21875 117.753906 168.207031 117.664062 Z M 165.820312 174.460938 L 166.761719 174.460938 C 167.300781 174.460938 167.835938 174.433594 168.371094 174.382812 C 168.90625 174.328125 169.4375 174.25 169.960938 174.144531 C 170.488281 174.039062 171.007812 173.90625 171.523438 173.75 C 172.035156 173.59375 172.542969 173.414062 173.039062 173.207031 C 173.535156 173 174.019531 172.773438 174.492188 172.519531 C 174.964844 172.265625 175.425781 171.988281 175.871094 171.691406 C 176.316406 171.390625 176.75 171.070312 177.164062 170.730469 C 177.578125 170.390625 177.976562 170.03125 178.355469 169.648438 C 178.734375 169.269531 179.097656 168.871094 179.4375 168.457031 C 179.777344 168.042969 180.097656 167.609375 180.394531 167.164062 C 180.695312 166.714844 180.96875 166.257812 181.222656 165.78125 C 181.476562 165.308594 181.707031 164.824219 181.914062 164.328125 C 182.117188 163.832031 182.300781 163.324219 182.457031 162.8125 C 182.613281 162.296875 182.742188 161.777344 182.847656 161.25 C 182.953125 160.722656 183.03125 160.191406 183.085938 159.65625 C 183.136719 159.125 183.164062 158.585938 183.164062 158.050781 L 183.164062 145.398438 L 149.417969 145.398438 L 149.417969 158.050781 C 149.417969 158.585938 149.445312 159.125 149.5 159.65625 C 149.550781 160.191406 149.632812 160.722656 149.738281 161.25 C 149.84375 161.777344 149.972656 162.296875 150.128906 162.8125 C 150.285156 163.324219 150.464844 163.832031 150.671875 164.328125 C 150.878906 164.824219 151.105469 165.308594 151.359375 165.78125 C 151.613281 166.257812 151.890625 166.714844 152.1875 167.164062 C 152.488281 167.609375 152.804688 168.042969 153.148438 168.457031 C 153.488281 168.871094 153.847656 169.269531 154.226562 169.648438 C 154.609375 170.03125 155.003906 170.390625 155.421875 170.730469 C 155.835938 171.070312 156.265625 171.390625 156.710938 171.691406 C 157.160156 171.988281 157.617188 172.265625 158.09375 172.519531 C 158.566406 172.773438 159.050781 173 159.546875 173.207031 C 160.042969 173.414062 160.546875 173.59375 161.0625 173.75 C 161.574219 173.90625 162.09375 174.039062 162.621094 174.144531 C 163.148438 174.25 163.679688 174.328125 164.214844 174.382812 C 164.746094 174.433594 165.285156 174.460938 165.820312 174.460938 Z M 149.417969 134.003906 L 149.417969 141.5625 L 164.375 141.5625 L 164.375 140.488281 C 163.722656 140.285156 163.113281 139.984375 162.554688 139.589844 C 161.996094 139.191406 161.511719 138.71875 161.101562 138.164062 C 160.695312 137.613281 160.382812 137.011719 160.167969 136.363281 C 159.953125 135.710938 159.84375 135.042969 159.839844 134.355469 L 159.839844 126.8125 C 159.84375 126.125 159.953125 125.457031 160.167969 124.804688 C 160.382812 124.152344 160.695312 123.550781 161.101562 123 C 161.511719 122.449219 161.996094 121.976562 162.554688 121.578125 C 163.113281 121.183594 163.722656 120.882812 164.375 120.679688 L 164.375 117.664062 C 163.363281 117.753906 162.371094 117.933594 161.390625 118.210938 C 160.414062 118.484375 159.46875 118.847656 158.558594 119.296875 C 157.648438 119.75 156.789062 120.28125 155.976562 120.890625 C 155.164062 121.5 154.414062 122.179688 153.730469 122.929688 C 153.042969 123.679688 152.433594 124.484375 151.894531 125.347656 C 151.359375 126.210938 150.90625 127.113281 150.539062 128.0625 C 150.167969 129.007812 149.890625 129.980469 149.703125 130.980469 C 149.515625 131.980469 149.417969 132.984375 149.417969 134.003906 Z M 149.417969 134.003906 " fill-opacity="1" fill-rule="nonzero"/></g><g fill="rgb(18.03894%, 17.649841%, 17.649841%)" fill-opacity="1"><g transform="translate(14.44498, 148.380816)"><g><path d="M 3.058594 0.195312 C 4.898438 0.195312 6.867188 -1.125 6.867188 -3.917969 L 6.867188 -12.75 C 6.867188 -13.089844 6.671875 -13.269531 6.347656 -13.269531 L 4.667969 -13.269531 C 4.382812 -13.269531 4.222656 -13.089844 4.222656 -12.804688 L 4.222656 -3.523438 C 4.222656 -2.863281 3.648438 -2.308594 2.96875 -2.308594 C 2.164062 -2.308594 1.824219 -2.738281 1.554688 -2.933594 C 1.503906 -2.96875 1.449219 -3.003906 1.378906 -3.003906 C 1.289062 -3.003906 1.179688 -2.949219 1.039062 -2.808594 L -0.0195312 -1.644531 C -0.105469 -1.539062 -0.214844 -1.378906 -0.0195312 -1.179688 C 0.804688 -0.304688 1.894531 0.195312 3.058594 0.195312 Z M 3.058594 0.195312 "/></g></g></g><g fill="rgb(18.03894%, 17.649841%, 17.649841%)" fill-opacity="1"><g transform="translate(23.61973, 148.380816)"><g><path d="M 14.433594 -6.636719 C 14.433594 -10.425781 11.355469 -13.46875 7.582031 -13.46875 C 3.808594 -13.46875 0.785156 -10.425781 0.785156 -6.636719 C 0.785156 -2.863281 3.808594 0.179688 7.582031 0.179688 C 11.355469 0.179688 14.433594 -2.863281 14.433594 -6.636719 Z M 11.804688 -6.636719 C 11.804688 -4.238281 9.996094 -2.324219 7.582031 -2.324219 C 5.1875 -2.324219 3.398438 -4.238281 3.398438 -6.636719 C 3.398438 -9.050781 5.1875 -10.964844 7.582031 -10.964844 C 9.996094 -10.964844 11.804688 -9.050781 11.804688 -6.636719 Z M 11.804688 -6.636719 "/></g></g></g><g fill="rgb(18.03894%, 17.649841%, 17.649841%)" fill-opacity="1"><g transform="translate(39.912511, 148.380816)"><g><path d="M 3.882812 -12.875 C 3.882812 -13.089844 3.648438 -13.269531 3.46875 -13.269531 L 1.628906 -13.269531 C 1.414062 -13.269531 1.25 -13.054688 1.25 -12.875 L 1.25 -5.238281 C 1.25 -2.234375 3.703125 0.214844 6.722656 0.214844 C 9.730469 0.214844 12.179688 -2.234375 12.179688 -5.238281 L 12.179688 -12.875 C 12.179688 -13.109375 11.945312 -13.269531 11.730469 -13.269531 L 9.960938 -13.269531 C 9.730469 -13.269531 9.550781 -13.089844 9.550781 -12.875 L 9.550781 -5.238281 C 9.550781 -3.578125 8.386719 -2.199219 6.722656 -2.199219 C 5.042969 -2.199219 3.882812 -3.578125 3.882812 -5.238281 Z M 3.882812 -12.875 "/></g></g></g><g fill="rgb(18.03894%, 17.649841%, 17.649841%)" fill-opacity="1"><g transform="translate(54.398956, 148.380816)"><g><path d="M 1.449219 -0.359375 C 1.449219 -0.125 1.554688 0 1.789062 0 L 3.703125 0 C 3.953125 0 4.058594 -0.125 4.058594 -0.359375 L 4.058594 -4.597656 L 6.777344 -4.597656 L 8.90625 -0.304688 C 9.015625 -0.0703125 9.121094 0 9.316406 0 L 11.625 0 C 11.859375 0 11.945312 -0.214844 11.859375 -0.375 L 9.425781 -5.203125 C 10.765625 -5.992188 11.679688 -7.402344 11.679688 -8.90625 C 11.679688 -11.160156 9.925781 -13.269531 7.476562 -13.269531 L 1.789062 -13.269531 C 1.554688 -13.269531 1.449219 -13.109375 1.449219 -12.914062 Z M 6.851562 -10.964844 C 8.082031 -10.964844 9.015625 -10.085938 9.015625 -8.960938 C 9.015625 -7.796875 8.082031 -6.957031 6.851562 -6.957031 L 4.058594 -6.957031 L 4.058594 -10.964844 Z M 6.851562 -10.964844 "/></g></g></g><g fill="rgb(18.03894%, 17.649841%, 17.649841%)" fill-opacity="1"><g transform="translate(67.436761, 148.380816)"><g><path d="M 1.449219 -0.394531 C 1.449219 -0.125 1.574219 0 1.84375 0 L 3.648438 0 C 3.933594 0 4.058594 -0.125 4.042969 -0.394531 L 4.042969 -9.226562 L 10.246094 -0.285156 C 10.390625 -0.125 10.480469 0 10.765625 0 L 12.535156 0 C 12.824219 0 12.964844 -0.125 12.964844 -0.394531 L 12.964844 -12.875 C 12.964844 -13.109375 12.714844 -13.269531 12.535156 -13.269531 L 10.730469 -13.269531 C 10.585938 -13.269531 10.410156 -13.214844 10.335938 -13.003906 L 10.335938 -4.542969 L 4.453125 -13.003906 C 4.363281 -13.179688 4.113281 -13.269531 3.933594 -13.269531 L 1.84375 -13.269531 C 1.574219 -13.269531 1.449219 -13.089844 1.449219 -12.875 Z M 1.449219 -0.394531 "/></g></g></g><g fill="rgb(18.03894%, 17.649841%, 17.649841%)" fill-opacity="1"><g transform="translate(82.656466, 148.380816)"><g><path d="M 0.269531 -0.375 C 0.160156 -0.125 0.269531 0 0.5 0 L 2.46875 0 C 2.664062 0 2.824219 -0.0898438 2.914062 -0.320312 L 3.753906 -2.46875 L 9.246094 -2.46875 L 10.105469 -0.320312 C 10.195312 -0.0898438 10.335938 0 10.550781 0 L 12.5 0 C 12.734375 0 12.859375 -0.144531 12.75 -0.375 L 7.707031 -12.929688 C 7.617188 -13.164062 7.457031 -13.269531 7.261719 -13.269531 L 5.757812 -13.269531 C 5.578125 -13.269531 5.417969 -13.164062 5.3125 -12.929688 Z M 6.511719 -9.835938 L 8.386719 -4.773438 L 4.597656 -4.773438 Z M 6.511719 -9.835938 "/></g></g></g><g fill="rgb(18.03894%, 17.649841%, 17.649841%)" fill-opacity="1"><g transform="translate(96.499066, 148.380816)"><g><path d="M 1.449219 -0.394531 C 1.449219 -0.125 1.589844 0 1.84375 0 L 9.300781 0 C 9.566406 -0.0195312 9.695312 -0.160156 9.695312 -0.394531 L 9.695312 -2.019531 C 9.695312 -2.269531 9.515625 -2.433594 9.300781 -2.433594 L 4.078125 -2.433594 L 4.078125 -12.894531 C 4.058594 -13.164062 3.917969 -13.289062 3.683594 -13.289062 L 1.859375 -13.289062 C 1.609375 -13.289062 1.449219 -13.109375 1.449219 -12.894531 Z M 1.449219 -0.394531 "/></g></g></g><g fill="rgb(18.03894%, 17.649841%, 17.649841%)" fill-opacity="1"><g transform="translate(107.802068, 148.380816)"><g><path d="M 1.449219 -0.359375 C 1.449219 -0.125 1.554688 0 1.789062 0 L 3.703125 0 C 3.953125 0 4.058594 -0.125 4.058594 -0.359375 L 4.058594 -4.597656 L 6.777344 -4.597656 L 8.90625 -0.304688 C 9.015625 -0.0703125 9.121094 0 9.316406 0 L 11.625 0 C 11.859375 0 11.945312 -0.214844 11.859375 -0.375 L 9.425781 -5.203125 C 10.765625 -5.992188 11.679688 -7.402344 11.679688 -8.90625 C 11.679688 -11.160156 9.925781 -13.269531 7.476562 -13.269531 L 1.789062 -13.269531 C 1.554688 -13.269531 1.449219 -13.109375 1.449219 -12.914062 Z M 6.851562 -10.964844 C 8.082031 -10.964844 9.015625 -10.085938 9.015625 -8.960938 C 9.015625 -7.796875 8.082031 -6.957031 6.851562 -6.957031 L 4.058594 -6.957031 L 4.058594 -10.964844 Z M 6.851562 -10.964844 "/></g></g></g></svg>